<?xml version="1.0" encoding="UTF-8"?>
<svg version="1.1" xmlns="http://www.w3.org/2000/svg" width="512" height="512">
<path d="M0 0 C0.74600464 0.00060425 1.49200928 0.0012085 2.26062012 0.00183105 C67.65208314 0.14504189 128.05674167 24.03603393 178.5 65.1875 C179.31186768 65.84274658 179.31186768 65.84274658 180.14013672 66.51123047 C195.28451859 78.80107928 209.61550336 92.70844861 221.5 108.1875 C222.46640001 109.36888235 223.43676171 110.54703033 224.41015625 111.72265625 C245.63143604 137.46135356 245.63143604 137.46135356 244.83984375 152.9765625 C243.20986066 163.58082032 238.88206881 171.70310264 232.5 180.1875 C232.08830566 180.73519043 231.67661133 181.28288086 231.25244141 181.84716797 C228.08614969 186.0303012 224.81437456 190.1211435 221.5 194.1875 C220.83605225 195.01024414 220.83605225 195.01024414 220.15869141 195.84960938 C207.87654317 210.98418144 193.97461121 225.31687394 178.5 237.1875 C177.34215275 238.13056607 176.18742977 239.07747555 175.03515625 240.02734375 C162.0153618 250.71919691 148.10430902 259.81149924 133.5 268.1875 C132.86964844 268.55198242 132.23929687 268.91646484 131.58984375 269.29199219 C92.17366173 291.84680745 46.17113089 302.44863217 1 302.375 C0.25266602 302.37406342 -0.49466797 302.37312683 -1.26464844 302.37216187 C-75.35861388 302.1717211 -143.5354501 271.31459803 -196.5 220.1875 C-197.11794434 219.59146973 -197.73588867 218.99543945 -198.37255859 218.38134766 C-206.29290284 210.69879207 -213.6949697 202.88940286 -220.5 194.1875 C-221.47385712 193.00037964 -222.45060884 191.81563008 -223.4296875 190.6328125 C-244.62454609 164.90141728 -244.62454609 164.90141728 -243.76953125 149.2578125 C-241.64705162 132.95470813 -230.61087496 120.50336908 -220.5 108.1875 C-220.05881836 107.6419043 -219.61763672 107.09630859 -219.16308594 106.53417969 C-206.87931897 91.39414314 -192.97523181 77.06541915 -177.5 65.1875 C-176.37718617 64.26800101 -175.2576217 63.34452564 -174.140625 62.41796875 C-133.65944829 29.00320971 -82.05580787 5.91866275 -29.5 1.1875 C-28.6018457 1.10282471 -27.70369141 1.01814941 -26.77832031 0.9309082 C-17.84819298 0.15500511 -8.95600715 -0.0134827 0 0 Z M-78.71875 83.5859375 C-96.85486042 105.24851383 -105.42516561 132.54538021 -103.2265625 160.6875 C-100.0522965 188.95643493 -86.63673805 214.05121931 -64.75 232.375 C-41.87703385 249.7281494 -15.00742005 257.72209907 13.6875 254.5 C41.27615174 250.41800561 66.57264439 236.36019949 83.56640625 213.9609375 C100.54167194 189.61257661 108.13149035 161.82609755 102.89794922 132.20117188 C97.53546638 105.06635073 81.82942078 80.66330403 58.86035156 65.07470703 C13.85177892 35.27308411 -42.67782365 44.62620373 -78.71875 83.5859375 Z " fill="#4456DA" transform="translate(255.5,104.8125)"/>
<path d="M0 0 C0.65355469 0.58523437 1.30710937 1.17046875 1.98046875 1.7734375 C17.86996943 16.71588185 25.17916343 37.71750053 26.03515625 59.0546875 C25.82839228 82.25819942 17.00997422 102.59181491 1.0625 119.3125 C-15.03341136 134.61784597 -35.95110658 142.20457736 -58 142 C-80.58292795 140.84825965 -101.28140072 131.88332326 -116.99609375 115.4140625 C-131.84035585 97.53150114 -139.46491577 76.20239057 -137.75 52.84765625 C-135.96918517 34.2703194 -128.54056271 17.80820081 -116 4 C-115.47148437 3.37867188 -114.94296875 2.75734375 -114.3984375 2.1171875 C-101.01119163 -12.64310923 -80.44437466 -20.60599044 -60.92578125 -21.93359375 C-37.78407494 -22.45883942 -17.11123776 -15.81711054 0 0 Z M-63.8125 4.9375 C-66.66930625 8.93702874 -67.37243553 12.12286803 -67 17 C-65.74914848 20.38465704 -64.54631655 21.61182771 -61.625 23.6875 C-58.20104086 24.92720934 -55.34234109 25.41433508 -51.75 25.875 C-42.94036342 27.09185619 -35.8468987 30.12129565 -30 37 C-29.319375 37.721875 -28.63875 38.44375 -27.9375 39.1875 C-23.72960077 45.29574082 -21.94957955 51.4920211 -21.0625 58.8125 C-20.42993979 64.05447095 -20.42993979 64.05447095 -17.5 68.25 C-13.40197986 71.1186141 -11.15510711 71.27978099 -6.265625 70.6015625 C-3.39742496 69.84000594 -1.51200544 68.64633081 0.1875 66.1796875 C3.68354486 56.80087485 0.681943 45.85419627 -3 37 C-9.86971225 22.21518451 -21.18308592 11.91396427 -36.15625 5.6875 C-44.18929671 2.87983319 -56.17118101 -0.32733222 -63.8125 4.9375 Z " fill="#4456DA" transform="translate(312,196)"/>
</svg>
